<svg width="77" height="86" viewBox="0 0 77 86" fill="none" xmlns="http://www.w3.org/2000/svg">
<path d="M17.6458 64.1666C12.7799 64.1666 8.62293 62.4822 5.17504 59.1135C1.72715 55.7447 0.00213889 51.6273 0 46.7614C0 42.5905 1.2566 38.8742 3.76979 35.6124C6.28299 32.3506 9.57153 30.2652 13.6354 29.3562C14.9722 24.4367 17.6458 20.453 21.6563 17.4051C25.6667 14.3572 30.2118 12.8333 35.2917 12.8333C41.5479 12.8333 46.8556 15.0128 51.2146 19.3718C55.5737 23.7309 57.7521 29.0375 57.75 35.2916C61.4396 35.7194 64.5014 37.3107 66.9355 40.0656C69.3695 42.8205 70.5855 46.0416 70.5833 49.7291C70.5833 53.7395 69.1802 57.1489 66.374 59.9572C63.5678 62.7656 60.1584 64.1687 56.1458 64.1666H17.6458Z" fill="white"/>
<circle cx="22.5" cy="62.5" r="12.5" fill="white"/>
<circle cx="12.5" cy="80.5" r="5.5" fill="white"/>
</svg>
