<svg width="66" height="66" viewBox="0 0 66 66" fill="none" xmlns="http://www.w3.org/2000/svg">
<rect width="66" height="66" rx="33" fill="#252C55"/>
<g opacity="0.9">
<path d="M24.5066 43.0333C22.1166 43.0333 20.0749 42.206 18.3814 40.5514C16.6879 38.8968 15.8407 36.8745 15.8396 34.4845C15.8396 32.4359 16.4568 30.6106 17.6912 29.0085C18.9256 27.4065 20.5408 26.3822 22.5368 25.9357C23.1934 23.5194 24.5066 21.5628 26.4763 20.0658C28.4461 18.5688 30.6785 17.8203 33.1736 17.8203C36.2464 17.8203 38.8533 18.8908 40.9943 21.0318C43.1353 23.1728 44.2053 25.7792 44.2043 28.8509C46.0164 29.0611 47.5203 29.8427 48.7158 31.1958C49.9113 32.5489 50.5086 34.131 50.5075 35.9421C50.5075 37.9119 49.8184 39.5864 48.44 40.9658C47.0617 42.3452 45.3872 43.0343 43.4163 43.0333H24.5066Z" fill="white"/>
<circle cx="26.8908" cy="42.2149" r="6.13953" fill="white"/>
<circle cx="21.9795" cy="51.0555" r="2.7014" fill="white"/>
</g>
</svg>
