<svg width="198" height="277" viewBox="0 0 198 277" fill="none" xmlns="http://www.w3.org/2000/svg">
<g clip-path="url(#clip0_224_1953)">
<path d="M57.1942 206.851C41.5604 206.851 28.2046 201.44 17.1269 190.616C6.04916 179.793 0.506872 166.564 0.5 150.93C0.5 137.53 4.53732 125.59 12.6119 115.11C20.6866 104.63 31.2523 97.9298 44.3092 95.0092C48.6042 79.2036 57.1942 66.4044 70.0793 56.6118C82.9643 46.8191 97.5674 41.9228 113.888 41.9228C133.989 41.9228 151.042 48.9254 165.047 62.9306C179.052 76.9358 186.052 93.9853 186.045 114.079C197.899 115.454 207.736 120.566 215.557 129.417C223.377 138.269 227.284 148.618 227.277 160.465C227.277 173.35 222.769 184.304 213.753 193.327C204.737 202.35 193.783 206.858 180.891 206.851H57.1942Z" fill="#3C3C45"/>
<circle cx="72.7901" cy="201.497" r="40.1612" fill="#3C3C45"/>
</g>
<circle cx="40.6612" cy="259.329" r="17.6709" fill="#3C3C45"/>
<defs>
<clipPath id="clip0_224_1953">
<rect width="247.393" height="247.393" fill="white" transform="translate(0.5 0.690918)"/>
</clipPath>
</defs>
</svg>
