<svg width="124" height="165" viewBox="0 0 124 165" fill="none" xmlns="http://www.w3.org/2000/svg">
<path d="M90.3125 122.861C99.6021 122.861 107.538 119.645 114.12 113.214C120.703 106.782 123.996 98.922 124 89.6325C124 81.67 121.601 74.5752 116.803 68.3481C112.005 62.121 105.727 58.1398 97.9688 56.4043C95.4167 47.0127 90.3125 39.4075 82.6562 33.5887C75 27.77 66.3229 24.8606 56.625 24.8606C44.6813 24.8606 34.5485 29.0215 26.2266 37.3433C17.9048 45.6652 13.7459 55.7959 13.75 67.7356C6.70625 68.5523 0.860954 71.5903 -3.78588 76.8496C-8.43271 82.1089 -10.7541 88.2584 -10.75 95.2981C-10.75 102.954 -8.07133 109.463 -2.714 114.825C2.64333 120.186 9.15216 122.865 16.8125 122.861H90.3125Z" fill="#3C3C45"/>
<circle cx="23.8636" cy="23.8636" r="23.8636" transform="matrix(-1 0 0 1 104.909 95.8153)" fill="#3C3C45"/>
<ellipse cx="10.5" cy="10.4884" rx="10.5" ry="10.4884" transform="matrix(-1 0 0 1 110.636 143.384)" fill="#3C3C45"/>
</svg>
